HIERARCHY
ROOT Hips
{
	OFFSET 0.000000 0.000000 0.000000 
	CHANNELS 6 Xposition Yposition Zposition Zrotation Yrotation Xrotation
	JOINT LeftUpLeg
	{
		OFFSET 1.363060 -1.794630 0.839290 
		CHANNELS 3 Zrotation Yrotation Xrotation
		JOINT LeftLeg
		{
			OFFSET 2.448110 -6.726130 0.000000 
			CHANNELS 3 Zrotation Yrotation Xrotation
			JOINT LeftFoot
			{
				OFFSET 2.562200 -7.039590 0.000000 
				CHANNELS 3 Zrotation Yrotation Xrotation
				JOINT LeftToeBase
				{
					OFFSET 0.157640 -0.433110 2.322550 
					CHANNELS 3 Zrotation Yrotation Xrotation
					End Site
					{
						OFFSET 0.000000 0.000000 0.000000 
					}
				}
			}
		}
	}
	JOINT RightUpLeg
	{
		OFFSET -1.305520 -1.794630 0.839290 
		CHANNELS 3 Zrotation Yrotation Xrotation
		JOINT RightLeg
		{
			OFFSET -2.542530 -6.985550 0.000000 
			CHANNELS 3 Zrotation Yrotation Xrotation
			JOINT RightFoot
			{
				OFFSET -2.568260 -7.056230 0.000000 
				CHANNELS 3 Zrotation Yrotation Xrotation
				JOINT RightToeBase
				{
					OFFSET -0.164730 -0.452590 2.363150 
					CHANNELS 3 Zrotation Yrotation Xrotation
					End Site
					{
						OFFSET 0.000000 0.000000 0.000000 
					}
				}
			}
		}
	}
	JOINT Spine
	{
		OFFSET 0.028270 2.035590 -0.193380 
		CHANNELS 3 Zrotation Yrotation Xrotation
		JOINT Spine1
		{
			OFFSET 0.056720 2.048850 -0.042750 
			CHANNELS 3 Zrotation Yrotation Xrotation
			JOINT Neck1
			{
				OFFSET -0.054170 1.746240 0.172020 
				CHANNELS 3 Zrotation Yrotation Xrotation
				JOINT Head
				{
					OFFSET 0.104070 1.761360 -0.123970 
					CHANNELS 3 Zrotation Yrotation Xrotation
					End Site
					{
						OFFSET 0.000000 0.000000 0.000000 
					}
				}
			}
			JOINT LeftArm
			{
				OFFSET 3.362410 1.200890 -0.311210 
				CHANNELS 3 Zrotation Yrotation Xrotation
				JOINT LeftForeArm
				{
					OFFSET 4.983000 -0.000000 -0.000000 
					CHANNELS 3 Zrotation Yrotation Xrotation
					JOINT LeftHand
					{
						OFFSET 3.483560 -0.000000 -0.000000 
						CHANNELS 3 Zrotation Yrotation Xrotation
						JOINT LeftHandIndex1
						{
							OFFSET 0.715260 -0.000000 -0.000000 
							CHANNELS 3 Zrotation Yrotation Xrotation
							End Site
							{
								OFFSET 0.000000 0.000000 0.000000 
							}
						}
					}
				}
			}
			JOINT RightArm
			{
				OFFSET -3.136600 1.374050 -0.404650 
				CHANNELS 3 Zrotation Yrotation Xrotation
				JOINT RightForeArm
				{
					OFFSET -5.241900 -0.000000 -0.000000 
					CHANNELS 3 Zrotation Yrotation Xrotation
					JOINT RightHand
					{
						OFFSET -3.444170 -0.000000 -0.000000 
						CHANNELS 3 Zrotation Yrotation Xrotation
						JOINT RightHandIndex1
						{
							OFFSET -0.622530 -0.000000 -0.000000 
							CHANNELS 3 Zrotation Yrotation Xrotation
							End Site
							{
								OFFSET 0.000000 0.000000 0.000000 
							}
						}
					}
				}
			}
		}
	}
}
MOTION
Frames: 9
Frame Time: 0.041667
0.389212 17.528660 -37.964337 0.529016 -2.682224 20.818149 -10.079086 -8.382731 -26.716325 5.290463 15.147800 46.105636 2.121319 -4.234676 1.890713 1.175800 -6.882400 -19.367400 21.016097 10.910603 -14.838980 -1.304114 -9.506453 28.715137 0.161923 -4.559210 -13.050554 -0.042100 1.324100 -3.640900 1.264720 -1.853362 -2.146183 3.604286 -0.489537 -1.445902 5.109152 -0.182770 4.495881 4.375400 -0.172900 3.646700 -83.937075 5.846396 17.466061 14.586619 -27.213185 -5.419924 -0.988097 -3.671580 -2.625864 -7.125000 0.000000 0.000000 80.377511 -2.383002 29.582124 -17.339027 26.598584 -6.127047 1.441518 -0.482169 0.797401 7.125000 0.000000 0.000000 
0.378340 17.498343 -37.840559 1.633301 -0.279013 19.386970 -10.032022 -10.368707 -26.301406 5.845285 15.622601 48.096978 2.297150 -5.386788 3.757207 1.219700 -7.005300 -19.731000 21.389879 9.223696 -13.061788 -1.238575 -9.208127 28.220824 0.661587 -6.132387 -13.796045 -0.076900 1.788500 -4.921500 2.723221 -4.623211 -3.219935 11.404729 -1.313545 -7.014542 4.246527 2.281895 5.352558 4.329300 0.731200 3.833500 -90.552887 10.885011 12.525781 15.436140 -28.098125 -5.883064 -0.995982 -3.718124 -2.221582 -7.125000 0.000000 0.000000 73.586760 -5.933850 35.585561 -17.965235 27.464665 -6.583023 1.342056 -0.529214 -0.857422 7.125000 0.000000 0.000000 
0.361299 17.476912 -37.730789 1.396238 -0.582049 19.464568 -9.735382 -10.039002 -27.431782 6.425315 16.128585 50.063374 2.244153 -5.578158 5.564902 1.258500 -7.111500 -20.046200 21.715166 9.146396 -12.501052 -1.142349 -9.000682 27.690955 0.660552 -6.082515 -13.636311 -0.124500 2.274100 -6.263900 3.014558 -5.146063 -3.324252 12.874852 -1.432945 -7.484362 4.195772 2.856559 5.381542 4.435300 0.972200 3.630300 -91.977080 11.920302 10.545624 15.778884 -28.560578 -6.143481 -0.916574 -3.629954 -2.917741 -7.125000 0.000000 0.000000 72.183053 -6.112299 37.600897 -18.383163 28.016683 -6.871989 1.341488 -0.444685 0.780976 7.125000 0.000000 0.000000 
0.349381 17.456735 -37.619242 1.499568 -0.440342 19.571381 -9.749609 -10.179865 -28.487955 7.015561 16.615385 52.052005 2.154713 -5.639081 7.601016 1.092400 -6.642200 -18.659600 21.714045 8.824106 -11.965836 -1.034972 -8.801093 27.126510 0.578500 -5.876176 -13.776297 -0.080700 1.832600 -5.043400 2.795674 -4.615085 -3.166287 11.737959 -1.278904 -7.076551 4.322057 1.598708 5.413468 4.486500 0.367800 3.756500 -90.982272 11.617229 11.886646 15.849965 -28.695083 -6.212192 -0.826195 -3.657971 -3.458345 -7.125000 0.000000 0.000000 73.238946 -5.631614 36.979682 -18.757679 28.402605 -7.123352 1.246559 -0.114524 0.310124 7.125000 0.000000 0.000000 
0.337568 17.439381 -37.506859 1.105371 0.022556 19.934380 -9.469929 -10.306930 -29.667358 7.659085 17.116517 54.147364 2.100932 -5.752702 9.577234 0.733700 -5.472500 -15.261300 22.083982 8.464004 -11.517909 -0.915631 -8.669806 26.587374 0.602004 -5.977166 -13.902123 -0.078900 1.811500 -4.985000 1.296784 -2.416144 -1.821292 3.068048 -0.768687 -1.174845 5.175684 -1.301483 3.796705 4.434700 -0.684000 3.279300 -83.667502 6.095331 18.122587 15.079954 -27.938682 -5.781249 -0.658346 -3.803698 -4.589577 -7.125000 0.000000 0.000000 80.521074 -1.647870 31.013156 -18.954157 28.561709 -7.232472 1.165653 -0.016352 0.784235 7.125000 0.000000 0.000000 
0.320632 17.415023 -37.403466 0.746228 0.044656 20.028330 -9.074544 -10.105886 -31.086119 8.358941 17.626535 56.334371 2.096889 -6.016562 10.769311 0.454600 -4.325200 -11.993300 22.552932 8.457456 -10.936135 -0.818966 -8.482343 26.065318 0.621900 -6.026349 -13.896763 -0.077900 1.800100 -4.953600 1.051358 -1.723386 -1.552141 1.588558 -0.430765 -0.197932 5.317563 -1.748879 3.578645 4.368900 -0.843100 3.378400 -82.398856 4.844655 19.449788 14.969394 -27.797232 -5.716105 -0.629953 -3.798644 -5.063186 -7.125000 0.000000 0.000000 81.707484 -0.679083 30.413427 -19.641977 29.302427 -7.669450 1.159563 -0.039047 0.099742 7.125000 0.000000 0.000000 
0.304637 17.391187 -37.309587 0.658321 -0.073849 20.009612 -8.854165 -9.957717 -32.631051 9.091082 18.127174 58.561892 1.984982 -5.763469 12.505458 0.103800 -2.077600 -5.720100 22.800812 8.708448 -10.226259 -0.723529 -8.258569 25.504254 0.736673 -6.300269 -13.728778 -0.074400 1.759100 -4.840200 1.237824 -1.374104 -1.769239 2.604637 -0.250269 -1.574260 5.048686 -1.904535 3.681218 4.225100 -0.965300 3.627700 -83.206185 5.713559 19.794306 15.259057 -28.106509 -5.890277 -0.688412 -3.711629 -5.121484 -7.125000 0.000000 0.000000 80.830971 -1.119190 30.919624 -20.329810 30.017918 -8.119359 1.136522 -0.000498 -0.551003 7.125000 0.000000 0.000000 
0.299619 17.364006 -37.191140 0.819617 0.031134 19.839886 -8.713409 -10.136583 -34.040485 9.880182 18.608131 60.835171 1.794230 -5.106536 13.088933 0.038000 -1.257500 -3.457600 22.981296 8.300221 -9.631839 -0.662427 -8.029949 25.039719 0.777237 -6.353996 -13.534589 -0.096300 2.001000 -5.508500 2.171862 -2.181874 -2.694921 7.675149 -0.383776 -6.254759 4.317559 -0.410609 4.327338 4.112900 -0.451100 3.824600 -87.521118 10.098921 17.137621 15.950948 -28.854944 -6.304880 -0.716204 -3.645820 -4.821939 -7.125000 0.000000 0.000000 76.411399 -4.368861 34.877933 -21.421650 31.213617 -8.871915 1.182827 -0.026471 -2.082298 7.125000 0.000000 0.000000 
0.297737 17.331179 -37.057535 0.790365 -0.225230 20.153286 -8.593157 -9.888846 -35.819477 10.693874 19.083151 63.170866 1.757457 -5.252299 11.103923 0.337900 -3.735500 -10.333700 23.076573 7.863567 -9.353487 -0.562208 -7.773932 24.400503 0.652498 -5.897107 -13.126430 -0.124200 2.272300 -6.258700 2.998824 -4.017954 -3.043467 11.961037 -0.978211 -7.389048 4.011456 1.821838 4.331926 4.332800 0.546900 3.295800 -91.671672 12.593540 12.283235 16.616013 -29.658162 -6.737834 -0.723541 -3.631372 -4.765987 -7.125000 0.000000 0.000000 72.522828 -5.084342 42.120284 -21.955518 31.871423 -9.160768 1.624691 -0.385949 -8.016538 7.125000 0.000000 0.000000 
